<svg xmlns="http://www.w3.org/2000/svg" xmlns:xlink="http://www.w3.org/1999/xlink" width="1123" zoomAndPan="magnify" viewBox="0 0 842.25 595.499986" height="794" preserveAspectRatio="xMidYMid meet" version="1.0"><defs><clipPath id="65cc2a2c1d"><path d="M 0 10.835938 L 841.496094 10.835938 L 841.496094 585.574219 L 0 585.574219 Z M 0 10.835938 " clip-rule="nonzero"/></clipPath></defs><g clip-path="url(#65cc2a2c1d)"><path fill="#ac0c0b" d="M 841.167969 585.574219 L 0.324219 585.574219 L 0.324219 10.554688 L 841.167969 10.554688 Z M 5.222656 580.679688 L 836.972656 580.679688 L 836.972656 14.753906 L 5.222656 14.753906 Z M 5.222656 580.679688 " fill-opacity="1" fill-rule="nonzero"/></g><path fill="#ac0c0b" d="M 36.003906 75.613281 C 36.703125 72.8125 41.597656 77.710938 44.394531 75.613281 C 47.195312 73.515625 43.695312 66.519531 36.703125 68.617188 C 29.007812 70.015625 29.007812 85.40625 40.199219 86.105469 C 51.390625 86.804688 56.988281 76.3125 54.890625 65.121094 C 52.789062 54.625 38.101562 47.632812 27.609375 51.128906 C 17.113281 54.625 10.820312 65.820312 12.917969 79.808594 C 15.015625 93.101562 31.105469 123.878906 27.609375 132.273438 C 24.109375 140.667969 15.015625 136.472656 15.015625 129.476562 C 14.316406 122.480469 19.214844 123.179688 19.214844 125.980469 C 19.214844 128.777344 23.410156 130.875 24.109375 128.078125 C 24.808594 125.28125 19.914062 118.984375 15.015625 121.78125 C 10.117188 125.28125 12.917969 136.472656 19.914062 137.871094 C 26.90625 139.269531 31.804688 133.675781 29.707031 123.179688 C 27.609375 112.6875 19.214844 95.199219 16.414062 86.105469 C 12.21875 72.113281 15.015625 54.625 31.804688 51.828125 C 40.898438 50.429688 51.390625 56.027344 52.789062 65.820312 C 53.492188 72.113281 49.992188 78.410156 46.496094 80.507812 C 40.199219 84.007812 34.601562 78.410156 36.003906 75.613281 Z M 36.003906 75.613281 " fill-opacity="1" fill-rule="evenodd"/><path fill="#ac0c0b" d="M 35.300781 117.585938 C 37.402344 116.1875 42.996094 118.984375 41.597656 125.28125 C 40.898438 130.875 28.308594 134.375 25.507812 121.78125 C 22.710938 111.289062 33.203125 102.894531 36.703125 95.898438 C 40.898438 87.503906 36.003906 81.910156 30.40625 82.609375 C 25.507812 83.308594 23.410156 86.105469 23.410156 91.003906 C 23.410156 94.5 26.207031 96.597656 28.308594 96.597656 C 29.707031 96.597656 31.804688 95.199219 31.804688 93.800781 C 31.804688 89.601562 28.308594 91.003906 26.90625 91.703125 C 25.507812 92.402344 24.109375 87.503906 28.308594 85.40625 C 32.503906 82.609375 38.800781 87.503906 36.003906 93.800781 C 33.203125 100.097656 24.109375 109.191406 24.109375 118.285156 C 24.109375 127.378906 28.308594 131.574219 35.300781 132.273438 C 41.597656 132.273438 46.496094 126.679688 44.394531 119.683594 C 41.597656 112.6875 32.503906 114.085938 30.40625 118.984375 C 29.707031 121.78125 30.40625 125.28125 32.503906 126.679688 C 35.300781 128.777344 39.5 125.28125 37.402344 123.179688 C 35.300781 121.082031 33.203125 119.683594 35.300781 117.585938 Z M 35.300781 117.585938 " fill-opacity="1" fill-rule="evenodd"/><path fill="#ac0c0b" d="M 30.40625 132.273438 C 31.804688 135.773438 22.011719 142.769531 19.914062 148.363281 C 18.511719 154.660156 24.109375 157.457031 26.90625 155.359375 C 29.707031 153.261719 24.808594 155.359375 23.410156 152.5625 C 22.011719 149.761719 26.207031 147.664062 26.207031 146.265625 C 26.90625 144.867188 28.308594 146.265625 28.308594 147.664062 C 29.007812 149.0625 28.308594 144.167969 30.40625 139.269531 C 32.503906 134.375 32.503906 132.273438 30.40625 132.273438 Z M 30.40625 132.273438 " fill-opacity="1" fill-rule="evenodd"/><path fill="#ac0c0b" d="M 35.300781 46.929688 C 31.804688 49.03125 24.109375 39.9375 17.8125 39.238281 C 11.519531 38.539062 9.417969 44.832031 12.21875 47.632812 C 14.316406 50.429688 11.519531 45.53125 14.316406 44.132812 C 17.113281 42.734375 19.914062 46.230469 21.3125 45.53125 C 22.710938 45.53125 21.3125 46.929688 19.914062 47.632812 C 18.511719 48.332031 23.410156 46.929688 28.308594 48.332031 C 33.203125 49.730469 35.300781 49.03125 35.300781 46.929688 Z M 35.300781 46.929688 " fill-opacity="1" fill-rule="evenodd"/><path fill="#ac0c0b" d="M 35.300781 44.832031 C 33.902344 46.230469 21.3125 35.738281 17.8125 34.339844 C 13.617188 32.941406 11.519531 34.339844 11.519531 20.347656 L 28.308594 37.835938 Z M 35.300781 44.832031 " fill-opacity="1" fill-rule="evenodd"/><path fill="#ac0c0b" d="M 64.683594 46.230469 C 61.886719 46.929688 66.78125 51.828125 64.683594 54.625 C 62.585938 57.425781 55.589844 53.925781 57.6875 46.230469 C 59.085938 38.539062 74.476562 38.539062 74.476562 49.730469 C 75.175781 60.921875 64.683594 66.519531 54.191406 64.421875 C 43.695312 62.320312 37.402344 47.632812 40.199219 36.4375 C 43.695312 25.945312 54.191406 19.648438 68.179688 21.75 C 81.472656 23.847656 111.550781 39.9375 119.945312 37.136719 C 128.339844 33.640625 124.144531 24.546875 117.148438 23.847656 C 110.152344 23.148438 110.851562 28.042969 113.652344 28.042969 C 116.449219 28.042969 118.546875 32.242188 115.75 32.941406 C 112.949219 33.640625 106.65625 28.742188 109.453125 23.847656 C 112.949219 18.949219 124.144531 21.75 125.542969 28.742188 C 126.941406 35.738281 121.34375 40.636719 110.851562 38.535156 C 100.359375 36.4375 83.570312 27.34375 74.476562 25.246094 C 60.484375 21.046875 42.996094 23.148438 40.898438 40.636719 C 39.5 49.730469 45.097656 60.222656 54.890625 61.621094 C 61.183594 62.320312 67.480469 58.824219 69.578125 55.324219 C 73.078125 50.429688 68.179688 44.832031 64.683594 46.230469 Z M 64.683594 46.230469 " fill-opacity="1" fill-rule="evenodd"/><path fill="#ac0c0b" d="M 106.65625 45.53125 C 105.257812 47.632812 108.054688 53.226562 113.652344 51.828125 C 119.246094 50.429688 122.746094 37.835938 110.851562 35.039062 C 100.359375 32.242188 92.664062 42.734375 85.667969 46.929688 C 77.972656 51.128906 71.679688 46.230469 72.378906 40.636719 C 73.078125 35.738281 75.875 33.640625 80.773438 32.941406 C 84.269531 32.941406 86.367188 35.738281 86.367188 37.835938 C 86.367188 39.238281 84.96875 41.335938 83.570312 41.335938 C 79.375 41.335938 80.773438 37.835938 81.472656 36.4375 C 82.171875 35.039062 77.972656 33.640625 75.175781 37.835938 C 72.378906 42.035156 77.273438 48.332031 83.570312 45.53125 C 89.867188 42.734375 98.960938 33.640625 107.355469 32.941406 C 116.449219 32.941406 120.644531 37.136719 120.644531 44.132812 C 120.644531 51.128906 115.050781 55.324219 108.054688 53.226562 C 101.058594 50.429688 102.457031 40.636719 107.355469 39.238281 C 110.152344 38.535156 113.652344 39.238281 115.050781 41.335938 C 117.148438 44.132812 113.652344 48.332031 111.550781 46.230469 C 110.152344 45.53125 108.054688 43.433594 106.65625 45.53125 Z M 106.65625 45.53125 " fill-opacity="1" fill-rule="evenodd"/><path fill="#ac0c0b" d="M 120.644531 39.9375 C 124.144531 42.035156 130.441406 31.542969 136.734375 29.441406 C 143.03125 27.34375 145.828125 33.640625 143.730469 37.136719 C 141.632812 39.9375 143.730469 35.039062 140.933594 33.640625 C 138.132812 32.242188 136.035156 36.4375 134.636719 36.4375 C 133.238281 36.4375 135.335938 37.835938 136.035156 38.539062 C 137.433594 39.238281 132.539062 38.539062 127.640625 40.636719 C 123.445312 42.734375 121.34375 42.035156 120.644531 39.9375 Z M 120.644531 39.9375 " fill-opacity="1" fill-rule="evenodd"/><path fill="#ac0c0b" d="M 37.402344 45.53125 C 39.5 42.035156 30.40625 34.339844 29.707031 28.042969 C 29.007812 21.75 35.300781 19.648438 38.101562 22.449219 C 40.898438 25.246094 36.003906 21.75 34.601562 24.546875 C 33.203125 27.34375 36.703125 30.144531 36.003906 31.542969 C 36.003906 32.941406 37.402344 31.542969 38.101562 30.144531 C 38.800781 28.742188 37.402344 33.640625 38.800781 38.539062 C 39.5 43.433594 39.5 44.832031 37.402344 45.53125 Z M 37.402344 45.53125 " fill-opacity="1" fill-rule="evenodd"/><path fill="#ac0c0b" d="M 35.300781 44.832031 C 36.703125 43.433594 26.90625 30.84375 25.507812 26.644531 C 24.109375 22.449219 25.507812 20.347656 11.519531 20.347656 L 28.308594 37.835938 Z M 35.300781 44.832031 " fill-opacity="1" fill-rule="evenodd"/><path fill="#ac0c0b" d="M 409.554688 23.148438 C 408.15625 21.046875 410.953125 16.851562 415.851562 17.550781 C 420.746094 18.25 423.546875 29.441406 413.050781 31.542969 C 403.957031 33.640625 397.664062 24.546875 391.367188 21.75 C 384.371094 18.25 379.472656 22.449219 380.175781 27.34375 C 380.875 31.542969 383.671875 33.640625 387.167969 33.640625 C 389.96875 33.640625 392.066406 31.542969 392.066406 29.441406 C 392.066406 28.042969 391.367188 26.644531 389.96875 26.644531 C 386.46875 26.644531 387.867188 29.441406 388.570312 30.84375 C 389.269531 31.542969 385.070312 32.941406 382.972656 29.441406 C 380.875 25.945312 385.070312 20.347656 389.96875 22.449219 C 394.863281 24.546875 403.257812 32.941406 410.253906 32.941406 C 417.949219 32.941406 421.445312 29.441406 421.445312 23.847656 C 421.445312 18.25 416.550781 14.054688 410.953125 16.152344 C 405.359375 18.25 406.058594 26.644531 410.253906 28.042969 C 413.050781 28.742188 415.851562 28.042969 416.550781 26.644531 C 418.648438 23.847656 415.851562 21.046875 413.050781 22.449219 C 412.351562 23.148438 410.953125 24.546875 409.554688 23.148438 Z M 409.554688 23.148438 " fill-opacity="1" fill-rule="evenodd"/><path fill="#ac0c0b" d="M 378.074219 24.546875 L 126.941406 24.546875 L 124.84375 23.148438 L 378.773438 23.148438 Z M 378.074219 24.546875 " fill-opacity="1" fill-rule="evenodd"/><path fill="#ac0c0b" d="M 13.617188 286.171875 C 12.21875 284.773438 7.320312 287.570312 8.019531 292.46875 C 8.71875 297.367188 19.214844 300.164062 22.011719 289.671875 C 24.109375 280.578125 15.714844 273.582031 12.21875 267.984375 C 8.71875 260.988281 12.917969 256.09375 17.8125 256.09375 C 22.011719 256.792969 24.109375 259.589844 24.109375 263.089844 C 24.109375 265.886719 22.011719 267.984375 19.914062 267.984375 C 18.511719 267.984375 17.113281 267.285156 17.113281 265.1875 C 17.113281 261.6875 19.914062 263.089844 21.3125 263.789062 C 22.011719 264.488281 23.410156 260.289062 19.914062 258.191406 C 16.414062 256.09375 10.820312 260.289062 12.917969 265.886719 C 15.015625 271.484375 23.410156 279.175781 23.410156 286.871094 C 23.410156 294.566406 19.914062 298.066406 14.316406 298.765625 C 8.71875 298.765625 4.523438 293.867188 6.621094 288.273438 C 8.71875 282.675781 17.113281 283.375 18.511719 287.570312 C 19.214844 290.371094 18.511719 293.167969 17.113281 293.867188 C 14.316406 295.964844 11.519531 293.167969 12.917969 290.371094 C 13.617188 288.972656 15.714844 287.570312 13.617188 286.171875 Z M 13.617188 286.171875 " fill-opacity="1" fill-rule="evenodd"/><path fill="#ac0c0b" d="M 15.714844 254.695312 L 15.714844 139.96875 L 13.617188 137.871094 L 13.617188 255.394531 Z M 15.714844 254.695312 " fill-opacity="1" fill-rule="evenodd"/><path fill="#ac0c0b" d="M 805.492188 75.613281 C 804.792969 72.8125 799.894531 77.710938 797.097656 75.613281 C 794.300781 73.515625 797.796875 66.519531 804.792969 68.617188 C 812.488281 70.015625 812.488281 85.40625 801.296875 86.105469 C 790.101562 86.804688 784.507812 76.3125 786.605469 65.121094 C 788.703125 54.625 803.394531 47.632812 813.886719 51.128906 C 824.378906 54.625 830.675781 65.820312 828.578125 79.808594 C 826.476562 93.101562 810.390625 123.878906 813.886719 132.273438 C 817.382812 140.667969 826.480469 136.472656 826.480469 129.476562 C 827.179688 122.480469 822.28125 123.179688 822.28125 125.980469 C 822.28125 128.777344 818.085938 130.875 817.382812 128.078125 C 816.683594 125.28125 821.582031 118.984375 826.480469 121.78125 C 831.375 125.28125 828.578125 136.472656 821.582031 137.871094 C 814.585938 139.269531 809.691406 133.675781 811.789062 123.179688 C 813.886719 112.6875 822.28125 95.199219 825.078125 86.105469 C 829.277344 72.113281 826.480469 54.625 809.691406 51.828125 C 800.597656 50.429688 790.101562 56.027344 788.703125 65.820312 C 788.003906 72.113281 791.5 78.410156 795 80.507812 C 801.296875 84.007812 806.890625 78.410156 805.492188 75.613281 Z M 805.492188 75.613281 " fill-opacity="1" fill-rule="evenodd"/><path fill="#ac0c0b" d="M 806.191406 117.585938 C 804.09375 116.1875 798.496094 118.984375 799.894531 125.28125 C 800.59375 130.875 813.1875 134.375 816.683594 122.480469 C 819.484375 111.988281 808.988281 103.59375 805.492188 96.597656 C 801.296875 88.203125 806.191406 82.609375 811.789062 83.308594 C 816.683594 84.007812 818.785156 86.804688 818.785156 91.703125 C 818.785156 95.199219 815.984375 97.296875 813.886719 97.296875 C 812.488281 97.296875 810.390625 95.898438 810.390625 94.5 C 810.390625 90.304688 813.886719 91.703125 815.285156 92.402344 C 816.683594 93.101562 818.085938 88.203125 813.886719 86.105469 C 809.691406 83.308594 803.394531 88.203125 806.191406 94.5 C 808.988281 100.796875 818.085938 109.890625 818.085938 118.984375 C 818.085938 128.078125 813.886719 132.273438 806.890625 132.972656 C 800.59375 132.972656 795.699219 127.378906 797.796875 120.382812 C 800.59375 113.386719 809.691406 114.785156 811.789062 119.683594 C 812.488281 122.480469 811.789062 125.980469 809.691406 127.378906 C 806.890625 129.476562 802.695312 125.980469 804.792969 123.878906 C 806.191406 121.082031 808.289062 119.683594 806.191406 117.585938 Z M 806.191406 117.585938 " fill-opacity="1" fill-rule="evenodd"/><path fill="#ac0c0b" d="M 811.089844 132.273438 C 809.691406 135.773438 819.484375 142.769531 821.582031 148.363281 C 822.980469 154.660156 817.382812 157.457031 814.585938 155.359375 C 811.789062 153.261719 816.683594 155.359375 818.085938 152.5625 C 819.484375 149.761719 815.285156 147.664062 815.285156 146.265625 C 815.285156 144.867188 813.886719 146.964844 813.1875 147.664062 C 812.488281 149.0625 813.1875 144.167969 811.089844 139.269531 C 808.988281 134.375 809.691406 132.273438 811.089844 132.273438 Z M 811.089844 132.273438 " fill-opacity="1" fill-rule="evenodd"/><path fill="#ac0c0b" d="M 806.191406 46.929688 C 809.691406 49.03125 817.382812 39.9375 823.679688 39.238281 C 829.976562 38.539062 832.074219 44.832031 829.277344 47.632812 C 827.179688 50.429688 829.976562 45.53125 827.179688 44.132812 C 824.378906 42.734375 821.582031 46.230469 820.183594 45.53125 C 818.785156 45.53125 820.183594 46.929688 821.582031 47.632812 C 822.980469 48.332031 818.085938 46.929688 813.1875 48.332031 C 808.289062 49.730469 806.191406 49.03125 806.191406 46.929688 Z M 806.191406 46.929688 " fill-opacity="1" fill-rule="evenodd"/><path fill="#ac0c0b" d="M 806.191406 44.832031 C 807.589844 46.230469 820.183594 35.738281 823.679688 34.339844 C 827.878906 32.941406 829.976562 34.339844 829.976562 20.347656 L 813.1875 37.136719 Z M 806.191406 44.832031 " fill-opacity="1" fill-rule="evenodd"/><path fill="#ac0c0b" d="M 776.8125 46.230469 C 779.609375 46.929688 774.710938 51.828125 776.8125 54.625 C 778.910156 57.425781 785.90625 53.925781 783.808594 46.230469 C 782.40625 38.539062 767.019531 38.539062 767.019531 49.730469 C 766.320312 60.921875 776.8125 66.519531 787.304688 64.421875 C 797.796875 62.320312 804.09375 47.632812 801.296875 36.4375 C 797.796875 25.945312 787.304688 19.648438 773.3125 21.75 C 760.023438 23.847656 729.941406 39.9375 721.546875 37.136719 C 713.152344 33.640625 717.351562 24.546875 724.347656 23.847656 C 731.339844 23.148438 730.640625 28.042969 727.84375 28.042969 C 725.046875 28.042969 722.945312 32.242188 725.746094 32.941406 C 728.542969 33.640625 734.839844 28.742188 732.042969 23.847656 C 728.542969 18.949219 717.351562 21.75 715.953125 28.742188 C 714.550781 35.738281 720.148438 40.636719 730.640625 38.535156 C 741.136719 36.4375 757.925781 27.34375 767.019531 25.246094 C 781.007812 21.046875 798.496094 23.148438 800.59375 40.636719 C 801.996094 49.730469 796.398438 60.222656 786.605469 61.621094 C 780.308594 62.320312 774.011719 58.824219 771.914062 55.324219 C 768.417969 50.429688 773.3125 44.832031 776.8125 46.230469 Z M 776.8125 46.230469 " fill-opacity="1" fill-rule="evenodd"/><path fill="#ac0c0b" d="M 734.839844 45.53125 C 736.238281 47.632812 733.441406 53.226562 727.84375 51.828125 C 722.246094 50.429688 718.75 37.835938 730.640625 35.039062 C 741.136719 32.242188 748.828125 42.734375 755.824219 46.929688 C 763.519531 51.128906 769.816406 46.230469 769.117188 40.636719 C 768.417969 35.738281 765.617188 33.640625 760.722656 32.941406 C 757.222656 32.941406 755.125 35.738281 755.125 37.835938 C 755.125 39.238281 756.523438 41.335938 757.925781 41.335938 C 762.121094 41.335938 760.722656 37.835938 760.023438 36.4375 C 759.324219 35.039062 763.519531 33.640625 766.320312 37.835938 C 769.117188 42.035156 764.21875 48.332031 757.925781 45.53125 C 751.628906 42.734375 742.535156 33.640625 734.140625 32.941406 C 725.046875 32.941406 720.847656 37.136719 720.847656 44.132812 C 720.847656 51.128906 726.445312 55.324219 733.441406 53.226562 C 740.4375 50.429688 739.035156 40.636719 734.140625 39.238281 C 731.339844 38.535156 727.84375 39.238281 726.445312 41.335938 C 724.347656 44.132812 727.84375 48.332031 729.941406 46.230469 C 731.339844 45.53125 733.441406 43.433594 734.839844 45.53125 Z M 734.839844 45.53125 " fill-opacity="1" fill-rule="evenodd"/><path fill="#ac0c0b" d="M 720.847656 39.9375 C 717.351562 42.035156 711.054688 31.542969 704.757812 29.441406 C 698.464844 27.34375 695.664062 33.640625 697.765625 37.136719 C 699.863281 39.9375 697.765625 35.039062 700.5625 33.640625 C 703.359375 32.242188 705.457031 36.4375 706.859375 36.4375 C 708.257812 36.4375 706.160156 37.835938 705.457031 38.539062 C 704.058594 39.238281 708.957031 38.539062 713.851562 40.636719 C 718.75 42.734375 720.148438 42.035156 720.847656 39.9375 Z M 720.847656 39.9375 " fill-opacity="1" fill-rule="evenodd"/><path fill="#ac0c0b" d="M 804.09375 45.53125 C 801.996094 42.035156 811.089844 34.339844 811.789062 28.042969 C 812.488281 21.75 806.191406 19.648438 803.394531 22.449219 C 800.59375 25.246094 805.492188 21.75 806.890625 24.546875 C 808.289062 27.34375 804.792969 30.144531 805.492188 31.542969 C 805.492188 32.941406 804.09375 31.542969 803.394531 30.144531 C 802.695312 28.742188 804.09375 33.640625 802.695312 38.539062 C 801.996094 43.433594 802.695312 44.832031 804.09375 45.53125 Z M 804.09375 45.53125 " fill-opacity="1" fill-rule="evenodd"/><path fill="#ac0c0b" d="M 806.191406 44.832031 C 804.792969 43.433594 814.585938 30.84375 815.984375 26.644531 C 817.382812 22.449219 815.984375 20.347656 829.976562 20.347656 L 813.1875 37.136719 Z M 806.191406 44.832031 " fill-opacity="1" fill-rule="evenodd"/><path fill="#ac0c0b" d="M 431.941406 23.148438 C 433.339844 21.046875 430.539062 16.851562 425.644531 17.550781 C 420.746094 18.25 417.949219 29.441406 428.441406 31.542969 C 437.535156 33.640625 443.832031 24.546875 450.128906 21.75 C 457.125 18.25 462.019531 22.449219 461.320312 27.34375 C 460.621094 31.542969 457.824219 33.640625 454.324219 33.640625 C 451.527344 33.640625 449.429688 31.542969 449.429688 29.441406 C 449.429688 28.042969 450.128906 26.644531 451.527344 26.644531 C 455.023438 26.644531 453.625 29.441406 452.925781 30.84375 C 452.226562 31.542969 456.421875 32.941406 458.523438 29.441406 C 460.621094 25.945312 456.421875 20.347656 451.527344 22.449219 C 446.628906 24.546875 438.234375 32.941406 431.242188 32.941406 C 423.546875 32.941406 420.046875 29.441406 420.046875 23.847656 C 420.046875 18.25 424.945312 14.054688 430.539062 16.152344 C 436.136719 18.25 435.4375 26.644531 431.242188 28.042969 C 428.441406 28.742188 425.644531 28.042969 424.945312 26.644531 C 422.847656 23.847656 425.644531 21.046875 428.441406 22.449219 C 429.140625 23.148438 430.539062 24.546875 431.941406 23.148438 Z M 431.941406 23.148438 " fill-opacity="1" fill-rule="evenodd"/><path fill="#ac0c0b" d="M 463.417969 24.546875 L 714.550781 24.546875 L 716.652344 23.148438 L 462.71875 23.148438 Z M 463.417969 24.546875 " fill-opacity="1" fill-rule="evenodd"/><path fill="#ac0c0b" d="M 827.878906 286.171875 C 829.976562 284.773438 834.171875 287.570312 833.472656 292.46875 C 832.773438 297.367188 822.28125 300.164062 819.484375 289.671875 C 817.382812 280.578125 825.777344 273.582031 829.277344 267.984375 C 832.773438 260.988281 828.578125 256.09375 823.679688 256.09375 C 819.484375 256.792969 817.382812 259.589844 817.382812 263.089844 C 817.382812 265.886719 819.484375 267.984375 821.582031 267.984375 C 822.980469 267.984375 824.378906 267.285156 824.378906 265.1875 C 824.378906 261.6875 821.582031 263.089844 820.183594 263.789062 C 819.484375 264.488281 818.085938 260.289062 821.582031 258.191406 C 825.078125 256.09375 830.675781 260.289062 828.578125 265.886719 C 826.476562 271.484375 818.085938 279.179688 818.085938 286.871094 C 818.085938 294.566406 821.582031 298.066406 827.179688 298.765625 C 832.773438 298.765625 836.972656 293.867188 834.871094 288.273438 C 832.773438 282.675781 824.378906 283.375 822.980469 287.570312 C 822.28125 290.371094 822.980469 293.167969 824.378906 293.867188 C 827.179688 295.964844 829.976562 293.167969 828.578125 290.371094 C 827.878906 288.972656 825.777344 287.570312 827.878906 286.171875 Z M 827.878906 286.171875 " fill-opacity="1" fill-rule="evenodd"/><path fill="#ac0c0b" d="M 825.777344 254.695312 L 825.777344 139.96875 L 827.878906 137.871094 L 827.878906 255.394531 Z M 825.777344 254.695312 " fill-opacity="1" fill-rule="evenodd"/><path fill="#ac0c0b" d="M 36.003906 520.519531 C 36.703125 523.316406 41.597656 518.417969 44.394531 520.519531 C 46.496094 523.316406 43.695312 529.613281 36.003906 528.210938 C 28.308594 526.8125 28.308594 511.425781 39.5 510.722656 C 50.691406 510.023438 56.289062 520.519531 54.191406 531.710938 C 52.089844 542.203125 37.402344 549.199219 26.90625 545.703125 C 16.414062 542.203125 10.117188 531.011719 12.21875 517.019531 C 14.316406 503.730469 30.40625 472.949219 26.90625 464.554688 C 24.109375 455.460938 15.015625 460.359375 14.316406 466.652344 C 13.617188 473.648438 18.511719 472.949219 18.511719 470.152344 C 18.511719 467.351562 22.710938 465.253906 23.410156 468.050781 C 24.109375 470.851562 19.214844 477.148438 14.316406 474.347656 C 9.417969 470.851562 12.21875 459.660156 19.214844 458.257812 C 26.207031 456.859375 31.105469 462.457031 29.007812 472.949219 C 26.90625 483.441406 18.511719 500.929688 15.714844 510.023438 C 11.519531 524.015625 14.316406 541.503906 31.105469 544.300781 C 40.199219 545.703125 50.691406 540.105469 52.089844 530.3125 C 52.789062 523.316406 49.292969 517.019531 45.796875 515.621094 C 40.199219 512.125 34.601562 517.71875 36.003906 520.519531 Z M 36.003906 520.519531 " fill-opacity="1" fill-rule="evenodd"/><path fill="#ac0c0b" d="M 35.300781 478.546875 C 37.402344 479.945312 42.996094 477.148438 41.597656 470.851562 C 40.898438 465.253906 28.308594 461.757812 24.808594 473.648438 C 22.011719 484.140625 32.503906 492.535156 36.003906 499.53125 C 40.199219 507.925781 35.300781 513.523438 29.707031 512.824219 C 24.808594 512.125 22.710938 509.324219 22.710938 504.429688 C 22.710938 500.929688 25.507812 498.832031 27.609375 498.832031 C 29.007812 498.832031 31.105469 500.230469 31.105469 501.628906 C 31.105469 505.828125 27.609375 504.429688 26.207031 503.730469 C 24.808594 503.03125 23.410156 507.925781 27.609375 510.023438 C 31.804688 512.824219 38.101562 507.925781 35.300781 501.628906 C 32.503906 495.335938 23.410156 486.242188 23.410156 477.148438 C 23.410156 468.050781 27.609375 463.855469 34.601562 463.15625 C 40.898438 463.15625 45.796875 468.753906 43.695312 475.746094 C 41.597656 482.742188 31.804688 481.34375 29.707031 476.445312 C 29.007812 473.648438 29.707031 470.152344 31.804688 468.753906 C 34.601562 466.652344 38.800781 470.152344 36.703125 472.25 C 35.300781 475.046875 33.203125 476.445312 35.300781 478.546875 Z M 35.300781 478.546875 " fill-opacity="1" fill-rule="evenodd"/><path fill="#ac0c0b" d="M 30.40625 463.855469 C 31.804688 460.359375 22.011719 453.363281 19.914062 447.765625 C 18.511719 441.46875 24.109375 438.671875 26.90625 440.769531 C 29.707031 442.871094 24.808594 440.769531 23.410156 443.570312 C 22.011719 446.367188 26.207031 448.464844 26.207031 449.863281 C 26.207031 451.265625 27.609375 449.164062 28.308594 448.464844 C 29.007812 447.066406 28.308594 451.964844 30.40625 456.859375 C 32.503906 461.757812 32.503906 463.15625 30.40625 463.855469 Z M 30.40625 463.855469 " fill-opacity="1" fill-rule="evenodd"/><path fill="#ac0c0b" d="M 35.300781 549.199219 C 31.804688 547.101562 24.109375 556.195312 17.8125 556.894531 C 12.21875 557.59375 10.117188 551.296875 12.21875 548.5 C 15.015625 545.703125 12.21875 550.597656 14.316406 551.996094 C 17.113281 554.09375 19.914062 550.597656 21.3125 550.597656 C 22.710938 550.597656 21.3125 549.199219 19.914062 548.5 C 18.511719 547.800781 23.410156 549.199219 28.308594 547.800781 C 33.203125 546.402344 35.300781 547.101562 35.300781 549.199219 Z M 35.300781 549.199219 " fill-opacity="1" fill-rule="evenodd"/><path fill="#ac0c0b" d="M 35.300781 550.597656 C 33.902344 549.199219 21.3125 559.691406 17.8125 561.089844 C 13.617188 562.488281 11.519531 561.089844 11.519531 575.082031 L 28.308594 558.292969 Z M 35.300781 550.597656 " fill-opacity="1" fill-rule="evenodd"/><path fill="#ac0c0b" d="M 64.683594 549.898438 C 61.886719 549.199219 66.78125 544.300781 64.683594 541.503906 C 62.585938 538.707031 55.589844 542.203125 57.6875 549.898438 C 59.085938 557.59375 73.777344 557.59375 74.476562 545.703125 C 75.175781 534.507812 64.683594 528.914062 54.191406 531.011719 C 43.695312 533.109375 37.402344 547.800781 40.199219 558.992188 C 43.695312 569.484375 54.191406 575.78125 68.179688 573.683594 C 81.472656 571.585938 111.550781 555.496094 119.945312 558.292969 C 129.039062 562.488281 124.84375 571.585938 117.847656 571.585938 C 110.851562 572.285156 111.550781 567.386719 114.351562 567.386719 C 117.148438 567.386719 119.246094 563.191406 116.449219 562.488281 C 113.652344 561.789062 107.355469 566.6875 110.152344 571.585938 C 113.652344 576.480469 124.84375 573.683594 126.242188 566.6875 C 127.640625 559.691406 122.046875 554.796875 111.550781 556.894531 C 101.058594 558.992188 84.269531 568.085938 75.175781 570.183594 C 61.886719 574.382812 44.394531 572.285156 42.296875 555.496094 C 40.898438 546.402344 46.496094 535.90625 56.289062 534.507812 C 61.886719 533.109375 68.179688 536.605469 70.277344 540.105469 C 73.078125 545.703125 68.179688 551.296875 64.683594 549.898438 Z M 64.683594 549.898438 " fill-opacity="1" fill-rule="evenodd"/><path fill="#ac0c0b" d="M 106.65625 550.597656 C 105.257812 548.5 108.054688 542.902344 113.652344 544.300781 C 119.246094 545.703125 122.746094 558.292969 110.851562 561.089844 C 100.359375 563.890625 92.664062 553.394531 85.667969 549.199219 C 77.972656 545 71.679688 549.898438 72.378906 555.496094 C 73.078125 560.390625 75.875 562.488281 80.773438 563.191406 C 84.269531 563.191406 86.367188 560.390625 86.367188 558.292969 C 86.367188 556.894531 84.96875 554.796875 83.570312 554.796875 C 79.375 554.796875 80.773438 558.292969 81.472656 559.691406 C 82.171875 560.390625 77.273438 561.789062 74.476562 557.59375 C 71.679688 553.394531 76.574219 547.101562 82.871094 549.898438 C 89.167969 552.695312 98.261719 561.789062 106.65625 562.488281 C 115.75 562.488281 119.945312 558.292969 119.945312 551.296875 C 119.945312 544.300781 114.351562 540.105469 107.355469 542.203125 C 100.359375 545 101.757812 554.796875 106.65625 556.195312 C 109.453125 556.894531 112.949219 556.195312 114.351562 554.09375 C 116.449219 551.296875 112.949219 547.101562 110.851562 549.199219 C 110.152344 550.597656 108.054688 552.695312 106.65625 550.597656 Z M 106.65625 550.597656 " fill-opacity="1" fill-rule="evenodd"/><path fill="#ac0c0b" d="M 120.644531 556.195312 C 124.144531 554.09375 130.441406 564.589844 136.734375 566.6875 C 143.03125 568.785156 145.828125 562.488281 143.730469 558.992188 C 141.632812 556.195312 143.730469 561.089844 140.933594 562.488281 C 138.132812 563.890625 136.035156 559.691406 134.636719 559.691406 C 133.238281 559.691406 135.335938 558.292969 136.035156 557.59375 C 137.433594 556.894531 132.539062 557.59375 127.640625 555.496094 C 123.445312 553.394531 121.34375 554.09375 120.644531 556.195312 Z M 120.644531 556.195312 " fill-opacity="1" fill-rule="evenodd"/><path fill="#ac0c0b" d="M 37.402344 550.597656 C 39.5 554.09375 30.40625 561.789062 29.707031 568.085938 C 28.308594 574.382812 34.601562 576.480469 37.402344 573.683594 C 40.199219 571.585938 36.003906 574.382812 33.902344 571.585938 C 32.503906 568.785156 36.003906 565.988281 35.300781 564.589844 C 35.300781 563.191406 36.703125 564.589844 37.402344 565.988281 C 38.101562 568.085938 36.703125 563.191406 38.101562 557.59375 C 39.5 552.695312 39.5 550.597656 37.402344 550.597656 Z M 37.402344 550.597656 " fill-opacity="1" fill-rule="evenodd"/><path fill="#ac0c0b" d="M 35.300781 550.597656 C 36.703125 551.996094 26.90625 564.589844 25.507812 568.785156 C 24.109375 572.984375 25.507812 575.082031 11.519531 575.082031 L 28.308594 558.292969 Z M 35.300781 550.597656 " fill-opacity="1" fill-rule="evenodd"/><path fill="#ac0c0b" d="M 409.554688 572.984375 C 408.15625 575.082031 410.953125 579.277344 415.851562 578.578125 C 420.746094 577.878906 423.546875 566.6875 413.050781 564.589844 C 403.957031 562.488281 397.664062 571.585938 391.367188 574.382812 C 384.371094 577.878906 379.472656 573.683594 380.175781 568.785156 C 380.875 564.589844 383.671875 562.488281 387.167969 562.488281 C 389.96875 562.488281 392.066406 564.589844 392.066406 566.6875 C 392.066406 568.085938 391.367188 569.484375 389.96875 569.484375 C 386.46875 569.484375 387.867188 566.6875 388.570312 565.289062 C 389.269531 564.589844 385.070312 563.191406 382.972656 566.6875 C 380.875 570.183594 385.070312 575.78125 389.96875 573.683594 C 394.863281 571.585938 403.257812 563.191406 410.253906 563.191406 C 417.949219 563.191406 421.445312 566.6875 421.445312 572.285156 C 421.445312 577.878906 416.550781 582.078125 410.953125 579.980469 C 405.359375 577.878906 406.058594 569.484375 410.253906 568.085938 C 413.050781 567.386719 415.851562 568.085938 416.550781 569.484375 C 418.648438 572.285156 415.851562 575.082031 413.050781 573.683594 C 412.351562 572.984375 410.953125 571.585938 409.554688 572.984375 Z M 409.554688 572.984375 " fill-opacity="1" fill-rule="evenodd"/><path fill="#ac0c0b" d="M 378.074219 571.585938 L 126.941406 571.585938 L 124.84375 572.984375 L 378.773438 572.984375 Z M 378.074219 571.585938 " fill-opacity="1" fill-rule="evenodd"/><path fill="#ac0c0b" d="M 13.617188 309.957031 C 11.519531 311.355469 7.320312 308.558594 8.019531 303.660156 C 8.71875 298.765625 19.214844 295.964844 22.011719 306.460938 C 24.109375 315.554688 15.714844 322.550781 12.21875 328.144531 C 8.71875 335.140625 12.917969 340.039062 17.8125 340.039062 C 22.011719 339.339844 24.109375 336.539062 24.109375 333.042969 C 24.109375 330.242188 22.011719 328.144531 19.914062 328.144531 C 18.511719 328.144531 17.113281 328.84375 17.113281 330.945312 C 17.113281 334.441406 19.914062 333.042969 21.3125 332.34375 C 22.011719 331.644531 23.410156 335.839844 19.914062 337.9375 C 16.414062 340.039062 10.820312 335.839844 12.917969 330.242188 C 15.015625 324.648438 23.410156 316.953125 23.410156 309.257812 C 23.410156 301.5625 19.914062 298.066406 14.316406 297.367188 C 8.71875 297.367188 4.523438 302.261719 6.621094 307.859375 C 8.71875 313.453125 17.113281 312.753906 18.511719 308.558594 C 19.214844 305.761719 18.511719 302.960938 17.113281 302.261719 C 14.316406 300.863281 11.519531 303.660156 12.917969 305.761719 C 13.617188 306.460938 15.714844 308.558594 13.617188 309.957031 Z M 13.617188 309.957031 " fill-opacity="1" fill-rule="evenodd"/><path fill="#ac0c0b" d="M 15.714844 341.4375 L 15.714844 456.160156 L 13.617188 458.257812 L 13.617188 340.738281 Z M 15.714844 341.4375 " fill-opacity="1" fill-rule="evenodd"/><path fill="#ac0c0b" d="M 805.492188 520.519531 C 804.792969 523.316406 799.894531 518.417969 797.097656 520.519531 C 794.300781 522.617188 797.796875 529.613281 804.792969 527.511719 C 812.488281 526.113281 812.488281 510.722656 801.296875 510.023438 C 790.101562 509.324219 784.507812 519.820312 786.605469 531.011719 C 788.703125 541.503906 803.394531 548.5 813.886719 545 C 824.378906 541.503906 830.675781 530.3125 828.578125 516.320312 C 826.476562 503.03125 810.390625 472.25 813.886719 463.855469 C 817.382812 455.460938 826.480469 459.660156 826.480469 466.652344 C 827.179688 473.648438 822.28125 472.949219 822.28125 470.152344 C 822.28125 467.351562 818.085938 465.253906 817.382812 468.050781 C 816.683594 470.851562 821.582031 477.148438 826.480469 474.347656 C 831.375 470.851562 828.578125 459.660156 821.582031 458.257812 C 814.585938 456.859375 809.691406 462.457031 811.789062 472.949219 C 813.886719 483.441406 822.28125 500.929688 825.078125 510.023438 C 829.277344 524.015625 826.480469 541.503906 809.691406 544.300781 C 800.597656 545.703125 790.101562 540.105469 788.703125 530.3125 C 788.003906 524.015625 791.5 517.71875 795 515.621094 C 801.296875 512.125 806.890625 517.71875 805.492188 520.519531 Z M 805.492188 520.519531 " fill-opacity="1" fill-rule="evenodd"/><path fill="#ac0c0b" d="M 806.191406 478.546875 C 804.09375 479.945312 798.496094 477.148438 799.894531 470.851562 C 800.59375 465.253906 813.1875 461.757812 816.683594 473.648438 C 819.484375 484.140625 808.988281 492.535156 805.492188 499.53125 C 801.296875 507.925781 806.191406 513.523438 811.789062 512.824219 C 816.683594 512.125 818.785156 509.324219 818.785156 504.429688 C 818.785156 500.929688 815.984375 498.832031 813.886719 498.832031 C 812.488281 498.832031 810.390625 500.230469 810.390625 501.628906 C 810.390625 505.828125 813.886719 504.429688 815.285156 503.730469 C 816.683594 503.03125 818.085938 507.925781 813.886719 510.023438 C 809.691406 512.824219 803.394531 507.925781 806.191406 501.628906 C 808.988281 495.335938 818.085938 486.242188 818.085938 477.148438 C 818.085938 468.050781 813.886719 463.855469 806.890625 463.15625 C 800.59375 463.15625 795.699219 468.753906 797.796875 475.746094 C 800.59375 482.742188 809.691406 481.34375 811.789062 476.445312 C 812.488281 473.648438 811.789062 470.152344 809.691406 468.753906 C 806.890625 466.652344 802.695312 470.152344 804.792969 472.25 C 806.191406 475.046875 808.289062 476.445312 806.191406 478.546875 Z M 806.191406 478.546875 " fill-opacity="1" fill-rule="evenodd"/><path fill="#ac0c0b" d="M 811.089844 463.855469 C 809.691406 460.359375 819.484375 453.363281 821.582031 447.765625 C 822.980469 441.46875 817.382812 438.671875 814.585938 440.769531 C 811.789062 442.871094 816.683594 440.769531 818.085938 443.570312 C 819.484375 446.367188 815.285156 448.464844 815.285156 449.863281 C 815.285156 451.265625 813.886719 449.164062 813.1875 448.464844 C 812.488281 447.066406 813.1875 451.964844 811.089844 456.859375 C 808.988281 461.757812 809.691406 463.15625 811.089844 463.855469 Z M 811.089844 463.855469 " fill-opacity="1" fill-rule="evenodd"/><path fill="#ac0c0b" d="M 806.191406 549.199219 C 809.691406 547.101562 817.382812 556.195312 823.679688 556.894531 C 829.976562 557.59375 832.074219 551.296875 829.277344 548.5 C 827.179688 545.703125 829.976562 550.597656 827.179688 551.996094 C 824.378906 553.394531 821.582031 549.898438 820.183594 550.597656 C 818.785156 550.597656 820.183594 549.199219 821.582031 548.5 C 822.980469 547.800781 818.085938 549.199219 813.1875 547.800781 C 808.289062 546.402344 806.191406 547.101562 806.191406 549.199219 Z M 806.191406 549.199219 " fill-opacity="1" fill-rule="evenodd"/><path fill="#ac0c0b" d="M 806.191406 550.597656 C 807.589844 549.199219 820.183594 559.691406 823.679688 561.089844 C 827.878906 562.488281 829.976562 561.089844 829.976562 575.082031 L 813.1875 558.292969 Z M 806.191406 550.597656 " fill-opacity="1" fill-rule="evenodd"/><path fill="#ac0c0b" d="M 776.8125 549.898438 C 779.609375 549.199219 774.710938 544.300781 776.8125 541.503906 C 778.910156 538.707031 785.90625 542.203125 783.808594 549.898438 C 782.40625 557.59375 767.019531 557.59375 767.019531 546.402344 C 766.320312 535.207031 776.8125 529.613281 787.304688 531.710938 C 797.796875 533.808594 804.09375 548.5 801.296875 559.691406 C 797.796875 570.183594 787.304688 576.480469 773.3125 574.382812 C 760.023438 572.285156 729.941406 556.195312 721.546875 558.992188 C 713.152344 562.488281 717.351562 571.585938 724.347656 572.285156 C 731.339844 572.984375 730.640625 568.085938 727.84375 568.085938 C 725.046875 568.085938 722.945312 563.890625 725.746094 563.191406 C 728.542969 562.488281 734.839844 567.386719 732.042969 572.285156 C 728.542969 577.179688 717.351562 574.382812 715.953125 567.386719 C 714.550781 560.390625 720.148438 555.496094 730.640625 557.59375 C 741.136719 559.691406 757.925781 568.785156 767.019531 570.882812 C 781.007812 575.082031 798.496094 572.984375 800.59375 555.496094 C 801.996094 546.402344 796.398438 535.90625 786.605469 534.507812 C 780.308594 533.808594 774.011719 537.308594 771.914062 540.804688 C 768.417969 545.703125 773.3125 551.296875 776.8125 549.898438 Z M 776.8125 549.898438 " fill-opacity="1" fill-rule="evenodd"/><path fill="#ac0c0b" d="M 734.839844 550.597656 C 736.238281 548.5 733.441406 542.902344 727.84375 544.300781 C 722.246094 545.703125 718.75 558.292969 730.640625 561.089844 C 741.136719 563.890625 748.828125 553.394531 755.824219 549.199219 C 763.519531 545 769.816406 549.898438 769.117188 555.496094 C 768.417969 560.390625 765.617188 562.488281 760.722656 563.191406 C 757.222656 563.191406 755.125 560.390625 755.125 558.292969 C 755.125 556.894531 756.523438 554.796875 757.925781 554.796875 C 762.121094 554.796875 760.722656 558.292969 760.023438 559.691406 C 759.324219 561.089844 763.519531 562.488281 766.320312 558.292969 C 769.117188 554.09375 764.21875 547.800781 757.925781 550.597656 C 751.628906 553.394531 742.535156 562.488281 734.140625 563.191406 C 725.046875 563.191406 720.847656 558.992188 720.847656 551.996094 C 720.847656 545 726.445312 540.804688 733.441406 542.902344 C 740.4375 545.703125 739.035156 555.496094 734.140625 556.894531 C 731.339844 557.59375 727.84375 556.894531 726.445312 554.796875 C 724.347656 551.996094 727.84375 547.800781 729.941406 549.898438 C 731.339844 550.597656 733.441406 552.695312 734.839844 550.597656 Z M 734.839844 550.597656 " fill-opacity="1" fill-rule="evenodd"/><path fill="#ac0c0b" d="M 720.847656 556.195312 C 717.351562 554.09375 711.054688 564.589844 704.757812 566.6875 C 698.464844 568.785156 695.664062 562.488281 697.765625 558.992188 C 699.863281 556.195312 697.765625 561.089844 700.5625 562.488281 C 703.359375 563.890625 705.457031 559.691406 706.859375 559.691406 C 708.257812 559.691406 706.160156 558.292969 705.457031 557.59375 C 704.058594 556.894531 708.957031 557.59375 713.851562 555.496094 C 718.75 553.394531 720.148438 554.09375 720.847656 556.195312 Z M 720.847656 556.195312 " fill-opacity="1" fill-rule="evenodd"/><path fill="#ac0c0b" d="M 804.09375 550.597656 C 801.996094 554.09375 811.089844 561.789062 811.789062 568.085938 C 812.488281 574.382812 806.191406 576.480469 803.394531 573.683594 C 800.59375 570.882812 805.492188 574.382812 806.890625 571.585938 C 808.289062 568.785156 804.792969 565.988281 805.492188 564.589844 C 805.492188 563.191406 804.09375 564.589844 803.394531 565.988281 C 802.695312 567.386719 804.09375 562.488281 802.695312 557.59375 C 801.996094 552.695312 802.695312 550.597656 804.09375 550.597656 Z M 804.09375 550.597656 " fill-opacity="1" fill-rule="evenodd"/><path fill="#ac0c0b" d="M 806.191406 550.597656 C 804.792969 551.996094 814.585938 564.589844 815.984375 568.785156 C 817.382812 572.984375 815.984375 575.082031 829.976562 575.082031 L 813.1875 558.292969 Z M 806.191406 550.597656 " fill-opacity="1" fill-rule="evenodd"/><path fill="#ac0c0b" d="M 431.941406 572.984375 C 433.339844 575.082031 430.539062 579.277344 425.644531 578.578125 C 420.746094 577.878906 417.949219 566.6875 428.441406 564.589844 C 437.535156 562.488281 443.832031 571.585938 450.128906 574.382812 C 457.125 577.878906 462.019531 573.683594 461.320312 568.785156 C 460.621094 564.589844 457.824219 562.488281 454.324219 562.488281 C 451.527344 562.488281 449.429688 564.589844 449.429688 566.6875 C 449.429688 568.085938 450.128906 569.484375 451.527344 569.484375 C 455.023438 569.484375 453.625 566.6875 452.925781 565.289062 C 452.226562 564.589844 456.421875 563.191406 458.523438 566.6875 C 460.621094 570.183594 456.421875 575.78125 451.527344 573.683594 C 446.628906 571.585938 438.234375 563.191406 431.242188 563.191406 C 423.546875 563.191406 420.046875 566.6875 420.046875 572.285156 C 420.046875 577.878906 424.945312 582.078125 430.539062 579.980469 C 436.136719 577.878906 435.4375 569.484375 431.242188 568.085938 C 428.441406 567.386719 425.644531 568.085938 424.945312 569.484375 C 422.847656 572.285156 425.644531 575.082031 428.441406 573.683594 C 429.140625 572.984375 430.539062 571.585938 431.941406 572.984375 Z M 431.941406 572.984375 " fill-opacity="1" fill-rule="evenodd"/><path fill="#ac0c0b" d="M 463.417969 571.585938 L 714.550781 571.585938 L 716.652344 572.984375 L 462.71875 572.984375 Z M 463.417969 571.585938 " fill-opacity="1" fill-rule="evenodd"/><path fill="#ac0c0b" d="M 827.878906 309.957031 C 829.976562 311.355469 834.171875 308.558594 833.472656 303.660156 C 832.773438 298.765625 822.28125 295.964844 819.484375 306.460938 C 817.382812 315.554688 825.777344 322.550781 829.277344 328.144531 C 832.773438 335.140625 828.578125 340.039062 823.679688 340.039062 C 819.484375 339.339844 817.382812 336.539062 817.382812 333.042969 C 817.382812 330.242188 819.484375 328.144531 821.582031 328.144531 C 822.980469 328.144531 824.378906 328.84375 824.378906 330.945312 C 824.378906 334.441406 821.582031 333.042969 820.183594 332.34375 C 819.484375 331.644531 818.085938 335.839844 821.582031 337.9375 C 825.078125 340.039062 830.675781 335.839844 828.578125 330.242188 C 826.476562 324.648438 818.085938 316.953125 818.085938 309.257812 C 818.085938 301.5625 821.582031 298.066406 827.179688 297.367188 C 832.773438 297.367188 836.972656 302.261719 834.871094 307.859375 C 832.773438 313.453125 824.378906 312.753906 822.980469 308.558594 C 822.28125 305.761719 822.980469 302.960938 824.378906 302.261719 C 827.179688 300.164062 829.976562 302.960938 828.578125 305.761719 C 827.878906 306.460938 825.777344 308.558594 827.878906 309.957031 Z M 827.878906 309.957031 " fill-opacity="1" fill-rule="evenodd"/><path fill="#ac0c0b" d="M 825.777344 341.4375 L 825.777344 456.160156 L 827.878906 458.257812 L 827.878906 340.738281 Z M 825.777344 341.4375 " fill-opacity="1" fill-rule="evenodd"/></svg>